General Info

Complete name                    : Home made Girlfriend fucked by her BF=MTR
Format                           : AVI
Format/Info                      : Audio Video Interleave
File size                        : 69.0 MiB
Duration                         : 12mn 54s
Overall bit rate                 : 747 Kbps

Video
ID                               : 0
Format                           : MPEG-4 Visual
Codec ID                         : MP42
Codec ID/Info                    : Microsoft MPEG-4 v2 (pre-standard)
Codec ID/Hint                    : Microsoft
Duration                         : 12mn 54s
Bit rate                         : 649 Kbps
Width                            : 240 pixels
Height                           : 180 pixels
Display aspect ratio             : 4:3
Frame rate                       : 25.000 fps
Compression mode                 : Lossy
Bits/(Pixel*Frame)               : 0.601
Stream size                      : 59.9 MiB (87%)
Title                            : ??????????(1

Audio
ID                               : 1
Format                           : PCM
Format settings, Sign            : Unsigned
Codec ID                         : 1
Codec ID/Hint                    : Microsoft
Duration                         : 12mn 54s
Bit rate mode                    : Constant
Bit rate                         : 88.2 Kbps
Channel(s)                       : 1 channel
Sampling rate                    : 11.025 KHz
Bit depth                        : 8 bits
Stream size                      : 8.14 MiB (12%)
Interleave, duration             : 40 ms (1.00 video frame)
Title                            : ??????????(1

